<svg width="162" height="32" viewBox="0 0 162 32" fill="none" xmlns="http://www.w3.org/2000/svg">
<g clip-path="url(#clip0_7622_166622)">
<path fill-rule="evenodd" clip-rule="evenodd" d="M27.1464 8.96888C27.1464 8.90834 27.3194 9.02077 27.7172 9.33212C27.8123 9.40996 27.8556 9.47915 27.8037 9.47915C27.6912 9.47915 27.1464 9.05537 27.1464 8.96888ZM27.9765 9.63495C27.8727 9.77333 27.89 9.80793 28.1235 10.102C28.4089 10.4566 28.4262 10.4566 28.6511 10.275L28.824 10.1366L28.504 9.80793C28.1408 9.43603 28.1235 9.42739 27.9765 9.63495ZM28.781 10.3963C28.954 10.2492 29.1097 10.1195 29.1442 10.1195C29.1875 10.1195 29.4297 10.4482 29.6632 10.8201C29.7151 10.8979 29.1442 11.339 28.9972 11.339C28.9713 11.339 28.8415 11.1833 28.7118 11.0017L28.4783 10.673L28.781 10.3963ZM31.0004 11.883C30.8909 11.8279 30.7092 11.9165 30.2791 12.1262L30.156 12.1862L29.4209 12.5408L29.542 12.8435L29.5468 12.8561C29.6214 13.0494 29.6658 13.1645 29.7493 13.2146C29.8721 13.2884 30.0796 13.2213 30.5925 13.0553L30.6057 13.051L31.4014 12.7916L31.2198 12.3159L31.1939 12.243C31.122 12.0403 31.0805 11.9232 31.0004 11.883ZM21.6975 31.3692C21.7926 30.2449 21.8099 28.3768 21.7234 28.3422C21.6715 28.3335 21.3688 28.3076 21.0575 28.2816L20.478 28.247L20.3137 29.9595C20.2272 30.8935 20.1667 31.6806 20.184 31.6979C20.2099 31.7152 20.5472 31.7584 20.9364 31.7757L21.6542 31.8189L21.6975 31.3692ZM18.4457 29.0253L18.2381 29.6826C18.1171 30.0459 18.0046 30.4091 17.9873 30.5043C17.97 30.5907 17.9181 30.6599 17.8662 30.6599C17.7625 30.6599 16.6641 30.2967 16.5949 30.2361C16.5689 30.2102 16.6641 29.8297 16.8111 29.3886C16.9581 28.9561 17.0879 28.5929 17.1138 28.5929C17.1311 28.5929 17.4425 28.688 17.7971 28.8091L18.4457 29.0253ZM16.4566 29.3454L16.6123 29.0168L16.1107 28.766L16.0056 28.7128C15.5591 28.4869 15.3909 28.4017 15.2944 28.4526C15.2361 28.4833 15.2039 28.5638 15.1523 28.6928L15.1334 28.74L14.9863 29.086L15.5831 29.3714L15.7044 29.4294C16.0557 29.5977 16.1927 29.6634 16.2787 29.6223C16.3337 29.5961 16.3679 29.5262 16.4239 29.4118C16.434 29.3911 16.4448 29.369 16.4566 29.3454ZM25.2697 29.6997C25.7021 31.5505 25.7021 31.5678 25.5291 31.6111C25.0967 31.7408 24.2059 31.8792 24.1626 31.8273C24.0848 31.7408 23.4102 27.2522 23.4707 27.1916C23.4967 27.1657 23.6956 27.1051 23.9291 27.0619L24.0005 27.0455L24.0005 27.0455L24.0005 27.0455C24.3271 26.9704 24.4833 26.9344 24.5752 26.9954C24.6595 27.0512 24.6898 27.1884 24.7479 27.4513L24.7594 27.503L24.7933 27.6515C24.886 28.0587 25.0811 28.9154 25.2697 29.6997ZM23.6209 31.8301C23.6758 31.7581 23.6669 31.6373 23.6512 31.4259L23.6512 31.4257C23.6487 31.3919 23.6461 31.3557 23.6434 31.317C23.6175 31.0143 23.531 30.0889 23.4445 29.25L23.2802 27.7365H22.6921C22.3721 27.7365 22.0867 27.7711 22.0607 27.8057C22.0088 27.8835 22.078 31.0316 22.1386 31.637L22.1732 32.0003L22.7613 31.9657L22.9249 31.9573C23.3607 31.9355 23.5476 31.9261 23.6209 31.8301ZM26.705 28.5063C27.1893 29.8123 27.5699 30.902 27.5439 30.928C27.4142 31.0577 26.1169 31.4296 26.0736 31.3517C26.0304 31.2739 25.6931 30.089 24.9753 27.4685L24.9342 27.3228C24.7712 26.7458 24.7115 26.5342 24.7913 26.4209C24.8375 26.3554 24.9303 26.3227 25.077 26.2712L25.077 26.2712L25.077 26.2712L25.1396 26.249C25.1808 26.2344 25.2192 26.2201 25.2551 26.2068L25.2552 26.2067C25.4057 26.1506 25.513 26.1106 25.6077 26.1307C25.8437 26.1807 26.0005 26.6042 26.5484 28.0839L26.705 28.5063ZM29.3604 29.9419L28.8242 28.93C28.7546 28.7969 28.6694 28.6347 28.5748 28.4544L28.5748 28.4543C28.2695 27.8729 27.8651 27.1024 27.5615 26.5083C27.155 25.7386 26.8177 25.1073 26.7918 25.1073C26.7785 25.1073 26.6429 25.1684 26.4672 25.2477L26.4671 25.2477L26.4667 25.2479L26.4665 25.248L26.2988 25.3235L26.2164 25.3619L26.2162 25.362C25.9934 25.4659 25.8145 25.5493 25.8145 25.557C25.8145 25.6175 26.1345 26.4046 26.5323 27.3559C26.7542 27.8893 26.9966 28.4666 27.1979 28.9456L27.198 28.9458L27.1983 28.9467L27.1989 28.948C27.3658 29.3455 27.5043 29.675 27.5788 29.8554C27.7431 30.2619 27.9074 30.5905 27.9334 30.5905C27.9593 30.5905 28.2966 30.4435 28.6772 30.2705L29.3604 29.9419ZM20.1235 28.8003C20.1235 28.8003 19.7949 31.3516 19.7343 31.4122C19.717 31.4208 19.3797 31.3689 18.9819 31.2824C18.3765 31.1613 18.2554 31.1181 18.2814 31.023C18.3073 30.9624 18.3852 30.5905 18.463 30.1927C18.5408 29.8035 18.6619 29.2673 18.7224 28.9992C18.8262 28.5581 18.8522 28.5149 18.9906 28.5494C19.0161 28.5546 19.0582 28.5627 19.1114 28.5729L19.1114 28.5729C19.2383 28.5974 19.4279 28.634 19.6046 28.6705C19.8554 28.7138 20.0889 28.7743 20.1235 28.8003ZM30.0436 10.9152C30.0003 10.9152 29.7841 11.0449 29.5679 11.2006L29.5679 11.2006L29.5679 11.2006L29.5678 11.2006C29.3516 11.3563 29.1355 11.5119 29.0749 11.5465C28.9884 11.5898 29.1182 11.9098 29.3949 12.3163C29.4555 12.3163 30.502 11.8492 30.5452 11.806C30.6057 11.7455 30.1301 10.9065 30.0436 10.9152ZM30.8565 28.6448C30.8565 28.6189 30.4241 27.9962 29.9052 27.2611C29.7117 26.9851 29.5194 26.7092 29.3274 26.4337L29.3258 26.4314L29.3242 26.4292L29.3231 26.4276L29.3216 26.4253L29.3209 26.4244L29.3207 26.4242C28.9914 25.9516 28.663 25.4803 28.3311 25.0124C27.9852 24.5108 27.6825 24.1043 27.6565 24.1043C27.6306 24.1043 27.4316 24.2254 27.2068 24.3724C26.9819 24.5194 26.7916 24.6578 26.7916 24.6751C26.7916 24.7184 27.3106 25.6265 28.7981 28.2124C29.196 28.8957 29.5419 29.4492 29.5765 29.4492C29.6716 29.4492 30.8565 28.7054 30.8565 28.6448ZM31.5053 26.4392C31.9464 26.9236 32.1107 27.1484 32.0588 27.209C32.0156 27.2522 31.7561 27.4857 31.4621 27.7192L30.9432 28.1517L29.2653 25.9203L27.5961 23.6976L27.994 23.3603C28.2188 23.1787 28.4004 23.0317 28.4004 23.0317C28.4091 23.0317 30.5021 25.3149 31.5053 26.4392ZM32.5777 14.1219C32.4716 14.0207 32.2179 14.0745 31.5084 14.2248L31.5081 14.2249C31.4047 14.2468 31.2917 14.2708 31.168 14.2966C30.5453 14.4263 30.0263 14.5387 30.0263 14.5387C30.009 14.5474 30.1388 15.3604 30.1561 15.369C30.1907 15.4036 32.6988 15.2047 32.7334 15.1701C32.7593 15.1528 32.7334 14.8933 32.6901 14.5906C32.6824 14.5377 32.6762 14.4892 32.6706 14.445L32.6706 14.445C32.65 14.2825 32.6367 14.1782 32.5777 14.1219ZM30.8134 13.1635C31.3582 12.9905 31.8252 12.8694 31.8512 12.8954C31.929 12.9732 32.1279 13.864 32.0761 13.9159C31.9896 13.9938 30.0436 14.3311 29.9917 14.2792C29.9312 14.2013 29.7496 13.544 29.7842 13.5094C29.8015 13.5008 30.2683 13.3452 30.8131 13.1636L30.8134 13.1635ZM34.1084 18.4306C34.0825 18.4047 30.3289 17.6782 30.2338 17.6782C30.1992 17.6782 30.1214 17.8598 30.0695 18.0674C29.983 18.4652 30.0089 18.6036 30.1646 18.6036C30.2079 18.6036 33.7884 19.7106 33.7884 19.7106L33.97 19.0706C34.0565 18.7247 34.1257 18.4393 34.1084 18.4306ZM30.0954 18.7508C30.1559 18.7508 34.2121 20.1 34.2467 20.1346C34.2726 20.1606 33.8316 21.2676 33.7624 21.3454C33.7018 21.406 29.6889 19.6157 29.7235 19.5379C29.7408 19.5119 29.8099 19.3303 29.8878 19.1227C29.957 18.9152 30.0521 18.7508 30.0954 18.7508ZM32.7504 15.4122C32.4736 15.4208 31.799 15.4468 31.2628 15.4727L31.215 15.4752C30.516 15.5117 30.2704 15.5245 30.1844 15.6482C30.1379 15.7152 30.1381 15.8147 30.1384 15.968L30.1385 16.0089V16.3895L30.4412 16.4241C30.6055 16.45 31.0812 16.4846 31.4877 16.5019L31.613 16.5097C32.0113 16.5345 32.5006 16.565 32.7504 16.5884L33.2693 16.6316V15.4122H32.7504ZM32.2922 24.7703L33.1312 25.4795L32.6468 25.9897C32.3874 26.2751 32.1366 26.5086 32.0933 26.5173C31.9982 26.5173 28.3571 22.7984 28.3571 22.7032C28.3571 22.6686 28.5128 22.487 28.6944 22.3054L29.0317 21.9595L29.2133 22.1238C29.3497 22.2602 30.1904 22.9772 31.3242 23.9443C31.6284 24.2037 31.9538 24.4812 32.2922 24.7703ZM33.719 23.6717C33.6584 23.6111 30.1384 21.3106 29.6974 21.0425L29.4466 20.8868L29.1871 21.2674L29.1335 21.3438C29.0043 21.5275 28.9414 21.6168 28.9547 21.6929C28.9674 21.7649 29.0485 21.825 29.2067 21.942L29.2649 21.9852C29.4466 22.1149 30.3374 22.8328 31.2368 23.5593C32.1363 24.2771 32.8887 24.8739 32.9147 24.8739C33.0098 24.8652 33.7709 23.7149 33.719 23.6717ZM34.0738 21.8814C34.1689 21.9679 33.4943 23.1874 33.3906 23.1182L33.3804 23.1121C33.2966 23.062 32.8264 22.7805 32.3095 22.4522C31.8661 22.1778 31.1936 21.7659 30.6696 21.4448L30.3376 21.2414L29.3689 20.6447L29.5765 20.2295C29.6889 20.0047 29.8014 19.8231 29.81 19.8231C29.8792 19.8231 34.0219 21.8209 34.0738 21.8814ZM33.7536 16.8568C33.7363 16.8395 33.1915 16.7876 32.5515 16.753C31.9115 16.7184 31.1244 16.6665 30.8044 16.6406L30.225 16.5887L30.1731 16.9952C30.1472 17.22 30.1385 17.419 30.1558 17.4362C30.225 17.5054 33.5634 18.1195 33.6153 18.0762C33.6585 18.033 33.7882 16.8914 33.7536 16.8568Z" fill="url(#paint0_linear_7622_166622)"/>
<path fill-rule="evenodd" clip-rule="evenodd" d="M21.8016 4.18595L21.767 2.96649C21.7497 2.30054 21.7151 1.35784 21.6892 0.873514L21.6546 0L21.3519 0.0172973C21.239 0.0207196 21.126 0.0268504 21.0125 0.0330102C20.8393 0.0424171 20.6647 0.0518919 20.487 0.0518919C20.2535 0.0691892 20.1843 0.103784 20.1497 0.12973C20.1065 0.172973 20.3486 2.82811 20.4957 3.94378C20.5476 4.32432 20.5908 4.33297 21.4297 4.22919L21.8016 4.18595ZM15.9723 22.5123C16.0156 22.6247 16.6729 23.0571 16.6729 23.0571C16.6988 23.0312 16.6383 22.9533 16.5345 22.8755C16.1194 22.5469 15.9464 22.4344 15.9723 22.5123ZM12.7549 17.6434C12.236 17.7472 11.6651 17.8596 11.5008 17.8856L11.4755 17.8907C11.3554 17.9149 11.2812 17.9298 11.2314 17.9016C11.151 17.8562 11.1341 17.6984 11.09 17.2859L11.0857 17.2456L11.0424 16.7699L11.9592 16.7267C12.4608 16.7007 12.9192 16.6661 12.9797 16.6488C13.0403 16.6402 13.2133 16.6229 13.3776 16.6229H13.6716L13.7149 17.0121C13.7408 17.2369 13.7495 17.4272 13.7408 17.4445C13.7235 17.4532 13.2824 17.5483 12.7549 17.6434ZM15.0037 21.5956L15.3237 21.3015L15.0988 20.9815L15.0492 20.9126C14.9339 20.7519 14.8774 20.6731 14.8088 20.6606C14.7428 20.6485 14.6657 20.6976 14.5145 20.7937L14.4502 20.8345L14.4347 20.8442C14.2558 20.957 14.1615 21.0164 14.1442 21.0932C14.1249 21.1787 14.2011 21.2858 14.3623 21.5123L14.3723 21.5264C14.3963 21.5607 14.4181 21.5922 14.4379 21.621C14.543 21.7736 14.5954 21.8496 14.6554 21.8561C14.7149 21.8626 14.7819 21.8005 14.9154 21.6769C14.942 21.6522 14.9713 21.6251 15.0037 21.5956ZM15.6695 21.8809C15.9376 22.2096 15.9462 22.2528 15.756 22.4172C15.6176 22.5469 15.6089 22.5382 15.2976 22.2009C15.0843 21.9703 15.0266 21.8118 15.1246 21.7253C15.3408 21.5436 15.4187 21.5696 15.6695 21.8809ZM26.7228 3.37277C26.8525 3.22574 27.2763 1.77277 27.1984 1.74682L27.1984 1.74681L27.1983 1.74679C27.1461 1.72938 26.8349 1.62566 26.4979 1.50466L25.8838 1.30574L25.659 2.04088C25.5379 2.44736 25.4168 2.82791 25.3995 2.8798C25.3563 2.99223 26.6363 3.46791 26.7228 3.37277ZM13.888 20.9903L13.7064 21.1114L13.4901 20.7308L13.468 20.6922C13.3283 20.448 13.2574 20.3241 13.2861 20.2308C13.3156 20.1346 13.451 20.071 13.7257 19.9418L13.7583 19.9265C13.8049 19.905 13.8479 19.8851 13.8876 19.8666L13.8878 19.8665L13.8878 19.8665C14.1703 19.7352 14.2883 19.6803 14.3693 19.7142C14.4273 19.7384 14.4663 19.8083 14.5333 19.9282C14.545 19.9492 14.5576 19.9717 14.5712 19.9957C14.5955 20.0369 14.6181 20.0733 14.6384 20.1059C14.7018 20.2077 14.7426 20.2731 14.7378 20.335C14.7294 20.4459 14.575 20.5457 14.144 20.8243C14.0676 20.8736 13.9825 20.9286 13.888 20.9903ZM9.7193 13.518C9.76255 13.5612 10.4458 13.7083 12.1582 14.0369C12.3977 14.0868 12.6307 14.1341 12.8318 14.1749L12.832 14.175L12.832 14.175C13.1538 14.2403 13.3937 14.2891 13.4469 14.305C13.5766 14.331 13.6112 14.2877 13.7063 13.9072C13.7669 13.665 13.7928 13.4574 13.7669 13.4488C13.7063 13.4056 10.0912 12.2639 10.0393 12.2639C10.0134 12.2639 9.96147 12.3764 9.91822 12.5234C9.7366 13.2326 9.68471 13.4834 9.7193 13.518ZM24.9758 3.41638C24.9066 3.48557 23.7131 3.25205 23.6785 3.16557C23.6439 3.07908 23.9639 1.02935 24.059 0.7007C24.085 0.614214 24.1455 0.588268 24.2493 0.605565C24.3088 0.623409 24.4746 0.657613 24.6652 0.696927L24.6652 0.696932L24.6652 0.696934C24.7518 0.714785 24.8434 0.733688 24.9325 0.752592C25.2266 0.813133 25.4774 0.873673 25.5034 0.899619C25.5379 0.934214 25.0277 3.36448 24.9758 3.41638ZM11.1637 5.96738C10.7399 6.41711 10.688 6.5036 10.7745 6.58144C10.8216 6.63632 11.3307 7.06796 11.9345 7.5799L11.9346 7.57997L12.1237 7.74035C12.807 8.31981 13.6805 9.0636 14.061 9.39225C14.4416 9.71225 14.7789 9.98035 14.8221 9.98035C14.8567 9.98035 15.021 9.81603 15.1853 9.62576L15.488 9.26252L14.6751 8.4236C12.2275 5.90684 11.7518 5.43117 11.7086 5.43117C11.6826 5.43117 11.4405 5.67333 11.1637 5.96738ZM10.0306 15.1092C10.0306 15.1092 10.0306 14.8152 10.0739 14.4865C10.0805 14.432 10.0856 14.3819 10.0902 14.3359C10.107 14.1692 10.1183 14.0574 10.1795 13.9929C10.3038 13.8619 10.6342 13.9264 11.6361 14.1218L11.6361 14.1218L11.6361 14.1218L11.6367 14.1219C11.7744 14.1488 11.9248 14.1781 12.089 14.2098L13.6544 14.5125L13.6285 14.9017C13.6112 15.1179 13.5852 15.3168 13.5593 15.3427C13.5074 15.3946 10.0825 15.1698 10.0306 15.1092ZM23.4966 1.99785C23.5831 1.0811 23.6091 0.276772 23.6091 0.276772C23.5399 0.216231 22.1648 0.15569 22.1302 0.207582C22.1215 0.233528 22.0869 1.01191 22.061 1.93731L22.0091 3.63245L22.2426 3.67569C22.3723 3.70164 22.675 3.71029 22.9085 3.69299L23.341 3.67569L23.4966 1.99785ZM14.2598 2.49958C14.303 2.50823 16.9409 7.1266 16.9755 7.25633C16.9928 7.30823 16.8025 7.47255 16.5603 7.62823L16.1279 7.91363L15.3928 6.8585L14.4328 5.49201L14.3959 5.43932L14.3959 5.4393L14.3958 5.43923L14.3958 5.43917L14.3958 5.43914L14.3957 5.43901L14.3955 5.43877L14.3955 5.43868C14.2457 5.22466 13.901 4.73202 13.5852 4.28985C13.2479 3.80552 12.9798 3.36444 13.0057 3.3212C13.023 3.26931 13.2998 3.07039 13.6285 2.86282C13.9571 2.6639 14.2425 2.49958 14.2598 2.49958ZM11.994 19.1047C12.1065 19.1047 13.8621 18.5252 13.9313 18.456C13.9659 18.4301 13.9573 18.2484 13.9054 18.0409L13.8961 18.0021C13.8663 17.8763 13.8465 17.7924 13.7939 17.7438C13.6883 17.6461 13.4508 17.6911 12.7364 17.8263L12.6081 17.8506C12.1411 17.9371 11.7519 18.0322 11.7259 18.0582C11.6567 18.1274 11.9162 19.1047 11.994 19.1047ZM11.7344 11.0964L9.63281 10.0672L9.97011 9.45316C10.1517 9.11586 10.3247 8.8391 10.3507 8.8391C10.3679 8.8391 10.7917 9.08992 11.2761 9.38397C13.689 10.8715 14.3377 11.2867 14.3723 11.3472C14.4328 11.4337 14.009 12.1602 13.9139 12.1342C13.8707 12.1256 12.8934 11.6586 11.7344 11.0964ZM12.7981 20.1774C12.8846 20.1774 14.3289 19.4336 14.3289 19.3904C14.3289 19.2347 14.0349 18.6812 13.957 18.6812C13.9051 18.6898 13.5592 18.785 13.1873 18.906C12.8154 19.0271 12.4868 19.1395 12.4522 19.1741C12.4089 19.2174 12.7376 20.1774 12.7981 20.1774ZM16.2059 8.28537L15.9638 8.50159L15.9223 8.53613C15.6179 8.79005 15.4919 8.89511 15.3867 8.87734C15.3124 8.8648 15.2485 8.79109 15.1394 8.66536L15.1249 8.64861C14.9778 8.48429 14.1562 7.57618 13.3 6.63348C12.4351 5.69078 11.7346 4.8778 11.7346 4.84321C11.7346 4.79997 11.9681 4.5578 12.2622 4.31564C12.5562 4.06483 12.8157 3.85726 12.8416 3.85726C12.8676 3.85726 13.6286 4.85186 14.5454 6.07132L16.2059 8.28537ZM28.5302 3.63239L28.6599 3.33834C28.8502 2.91455 28.8329 2.89726 28.2102 2.61185L28.1373 2.57893C27.7618 2.40918 27.6178 2.34412 27.5283 2.38857C27.4726 2.41621 27.4379 2.48614 27.3816 2.59955L27.3626 2.6378C27.2848 2.79347 27.2156 2.9405 27.2156 2.96645C27.2156 2.98374 27.5096 3.14807 27.8729 3.32104L28.5302 3.63239ZM18.9494 4.88148C19.0665 5.26961 19.1197 5.44601 19.0559 5.55168C19.0027 5.63971 18.8683 5.67866 18.6219 5.75006L18.5581 5.76858C18.2641 5.85507 18.0046 5.91561 17.996 5.90696C17.9873 5.88966 17.8835 5.61291 17.7625 5.27561C17.6414 4.94696 17.2522 3.89182 16.8976 2.94047C16.543 1.98912 16.2489 1.1675 16.2489 1.11561C16.2489 1.07236 16.543 0.933986 16.9149 0.804257C17.2695 0.683176 17.6068 0.579392 17.65 0.579392C17.6933 0.579392 17.9527 1.35777 18.2468 2.40426C18.5235 3.41615 18.8349 4.50588 18.93 4.81723L18.9494 4.88148ZM10.7487 16.6054C10.8957 16.6054 11.5963 16.5622 12.2968 16.519L13.5854 16.4325L13.6027 16L13.62 15.559L12.9627 15.5157C12.664 15.4944 12.1312 15.4672 11.6723 15.4438L11.3887 15.4292L10.4892 15.386V16.6054H10.7487ZM10.9226 12.3206L10.9217 12.3203L10.9216 12.3203L10.9215 12.3203C10.143 12.0596 9.57903 11.8708 9.57235 11.8575C9.55505 11.8488 9.65018 11.5461 9.77991 11.1915C9.90964 10.8369 10.0307 10.5515 10.0394 10.5515C10.0567 10.5515 10.9302 10.9494 11.994 11.4423C13.0578 11.9353 13.9572 12.3331 13.9918 12.3331C14.0783 12.3331 14.0178 12.5667 13.8534 12.9558L13.7237 13.2499L11.6567 12.5667C11.3993 12.4802 11.1517 12.3973 10.9226 12.3206ZM17.9613 6.37387C17.9613 6.32198 17.7451 5.77712 17.4943 5.16306C17.4266 5.0005 17.3453 4.80611 17.2571 4.59513L17.2568 4.5945C17.0071 3.99741 16.7019 3.26757 16.4911 2.75009C16.197 2.0409 15.9289 1.44414 15.903 1.4182C15.8857 1.39225 15.557 1.51333 15.1851 1.68631C14.8219 1.85928 14.5019 2.01496 14.4846 2.03225C14.4846 2.11009 16.863 6.69387 16.9667 6.80631C17.0446 6.88414 17.9613 6.48631 17.9613 6.37387ZM14.2858 11.0358C14.1561 11.0012 10.0652 8.31149 10.0652 8.25095C10.0652 8.21635 10.2555 7.93959 10.4717 7.63689C10.6966 7.31689 10.8782 7.06608 10.8869 7.05743L12.3052 8.2077C13.0923 8.83905 13.9917 9.56554 14.3117 9.825C14.6404 10.0758 14.8998 10.3007 14.8998 10.318C14.8998 10.4131 14.3723 11.0358 14.2858 11.0358ZM20.3659 4.81743C20.3832 4.80878 20.314 4.27256 20.2189 3.62392C20.1199 3.01336 19.9815 2.07221 19.8939 1.47629L19.8816 1.39256C19.7599 0.579349 19.7423 0.265134 19.5912 0.175137C19.474 0.105294 19.2763 0.170491 18.887 0.242294C18.4805 0.311483 18.1346 0.380672 18.1259 0.389321C18.1173 0.39797 18.1865 0.735267 18.2816 1.14175C18.3607 1.48047 18.438 1.81755 18.5152 2.1537C18.6154 2.59004 18.7152 3.02481 18.8178 3.45959C19.0168 4.32446 19.1897 5.03365 19.1984 5.04229C19.2243 5.06824 20.3313 4.85202 20.3659 4.81743Z" fill="url(#paint1_linear_7622_166622)"/>
<path fill-rule="evenodd" clip-rule="evenodd" d="M26.8441 6.91734C26.6452 7.28058 26.4462 7.64383 26.256 8.00707L26.0657 8.34437L25.6506 8.1368L25.2268 7.92058L25.763 6.61464C26.057 5.8968 26.403 5.04058 26.5327 4.71193C26.6624 4.37464 26.8181 3.98545 26.8787 3.83842H26.8873L26.9997 3.57031L27.6397 3.89031L28.2884 4.21031L27.7695 5.18761C27.4841 5.73247 27.0689 6.5022 26.8441 6.91734ZM21.8712 4.85916H21.4215C21.1794 4.86781 20.9026 4.88511 20.8075 4.90241C20.6604 4.92835 20.6431 4.96295 20.6777 5.19646C20.7037 5.33484 20.7729 5.90565 20.8334 6.45052L20.8605 6.6872C20.9508 7.47812 20.9758 7.69682 21.0858 7.75513C21.1278 7.77741 21.1823 7.77627 21.2575 7.77469C21.2788 7.77424 21.3017 7.77376 21.3264 7.77376C21.3532 7.77376 21.3787 7.77393 21.4029 7.77409C21.5605 7.77516 21.6651 7.77586 21.7346 7.72678C21.8722 7.62961 21.872 7.33733 21.8713 6.46646L21.8712 6.26889V4.85916ZM30.2343 10.6362C30.7791 10.3249 34.7835 7.64379 34.8094 7.58325C34.844 7.47947 34.0483 6.34649 33.9359 6.34649C33.8926 6.34649 32.9153 7.09893 31.7651 8.02433L30.9641 8.6688C30.1935 9.2889 29.6291 9.7431 29.6029 9.76271C29.5164 9.85785 30.1305 10.7054 30.2343 10.6362ZM31.9813 12.5651C32.0245 12.617 36.1499 11.2418 36.8591 10.9478L37.1013 10.844L36.8159 10.1089C36.6602 9.71102 36.5218 9.37372 36.5132 9.36508C36.4964 9.36508 36.1175 9.53164 35.5569 9.77808L35.5568 9.77814L35.5568 9.77815C35.251 9.91256 34.8912 10.0707 34.5067 10.2386C33.4083 10.7316 32.3099 11.2245 32.0505 11.337C31.791 11.458 31.6094 11.5705 31.6094 11.631C31.644 11.7867 31.9294 12.5045 31.9813 12.5651ZM37.1359 19.1118L34.8786 18.6016L34.4894 19.8902L36.7208 20.5129L37.1359 19.1118ZM37.6636 17.2095C37.7069 17.2527 37.5253 18.6365 37.4734 18.6884C37.4301 18.7403 34.5069 18.3078 34.4377 18.2386C34.4031 18.2041 34.5242 17.1662 34.5847 16.9759C34.602 16.9154 34.7058 16.8981 34.9134 16.924C35.0863 16.95 35.7609 17.0192 36.4269 17.0797C37.0928 17.1403 37.6463 17.2008 37.6636 17.2095ZM32.7942 13.8192C32.8547 13.8192 33.6591 13.6549 34.6277 13.4473C35.6137 13.2311 36.7034 12.9976 37.032 12.9284C37.3693 12.8678 37.6634 12.79 37.6893 12.7641C37.7412 12.7208 37.4126 11.3284 37.3347 11.2505C37.3088 11.2246 36.2364 11.5186 34.9477 11.9078C33.6591 12.297 32.5866 12.6257 32.552 12.6516C32.5001 12.6776 32.725 13.7413 32.7942 13.8192ZM37.9491 15.9897L37.9664 16.7508H37.188C36.7642 16.7508 35.8821 16.7335 35.2334 16.7076L34.0486 16.6557V15.3238H34.5242C34.7923 15.3151 35.5361 15.2892 36.1848 15.2546C36.8248 15.2287 37.4821 15.2114 37.6378 15.2114H37.9232L37.9491 15.9897ZM33.495 15.1598C33.5296 15.1858 37.9923 14.7447 37.9923 14.7447C38.0182 14.7187 37.9404 13.9663 37.8453 13.4214C37.8433 13.4085 37.8416 13.3962 37.84 13.3844C37.8326 13.3301 37.8268 13.2883 37.8045 13.2594C37.7302 13.163 37.4723 13.2082 36.3564 13.4037L36.1069 13.4474C35.3458 13.5771 34.4204 13.7328 34.0485 13.7933C33.6853 13.8452 33.3653 13.9144 33.348 13.9317C33.3134 13.9663 33.4518 15.1166 33.495 15.1598ZM34.7834 23.0127C34.6018 23.3587 34.4461 23.6441 34.4375 23.6527C34.4029 23.696 34.1867 23.5749 34.1867 23.5144C34.1867 23.4798 34.3337 23.1771 34.524 22.8484C34.8094 22.3295 34.8699 22.2603 34.9823 22.3208C35.1121 22.39 35.0948 22.4333 34.7834 23.0127ZM36.1154 9.08839C36.1154 9.14028 31.2548 11.5533 31.1424 11.5533C31.1078 11.5533 30.9694 11.337 30.8224 11.0862L30.5629 10.6192L30.7186 10.5241C30.8517 10.4353 31.8578 9.82154 32.882 9.19667L33.3997 8.88082C33.599 8.76021 33.8841 8.58554 34.1567 8.41852L34.1579 8.4178L34.1588 8.41726L34.1604 8.41625C34.3361 8.30861 34.5065 8.20426 34.6451 8.11974C34.9997 7.89487 35.311 7.71325 35.337 7.7046C35.3889 7.7046 36.1154 9.0019 36.1154 9.08839ZM29.1497 9.84089C29.2656 9.85211 29.3931 9.74276 29.6476 9.52447L29.6722 9.5034C29.8376 9.35934 30.2433 9.01446 30.7228 8.60688L30.7229 8.60679L30.723 8.60673L30.724 8.60585L30.7246 8.60535L30.7247 8.60526L30.725 8.60501C31.0221 8.35246 31.3474 8.07595 31.6614 7.80827C32.483 7.10773 33.2095 6.48503 33.2787 6.41584C33.4084 6.3034 33.3911 6.27746 32.8981 5.74989C32.6214 5.44719 32.3619 5.20503 32.336 5.20503C32.3014 5.20503 31.4279 6.08719 30.3814 7.16827L28.4873 9.14016L28.6949 9.39962L28.7195 9.43088L28.7195 9.43089C28.9289 9.69689 29.0335 9.82963 29.1497 9.84089ZM35.043 20.3832L36.2452 20.8849L35.6571 22.1735L34.5414 21.6978L35.043 20.3832ZM28.3488 9.07947C28.565 8.8546 31.445 5.6719 31.644 5.44704C31.765 5.30001 31.7564 5.29136 31.2461 4.86758C30.9694 4.63406 30.7013 4.42649 30.658 4.40055C30.5888 4.40055 30.0613 5.04055 29.3694 5.9746C28.7121 6.85676 28.0029 7.80812 27.7953 8.08487C27.7646 8.12564 27.736 8.1633 27.7094 8.19821C27.5266 8.43879 27.4433 8.54833 27.4587 8.64154C27.4716 8.71947 27.5535 8.78597 27.7038 8.90808C27.7295 8.92889 27.7571 8.95131 27.7867 8.97568L28.1586 9.27839L28.3488 9.07947ZM23.2894 4.59081C23.2894 4.81567 23.2462 5.16162 22.9954 7.11621L22.9175 7.70432L22.4851 7.68702L22.044 7.66973L22.0267 6.49351C22.0094 5.84486 22.0181 5.07513 22.044 4.78973C22.0873 4.29675 22.1046 4.27081 22.2516 4.3054C22.3294 4.33135 22.5975 4.34864 22.8484 4.34864H23.2894V4.59081ZM27.2681 8.56065C27.3286 8.46552 27.9686 7.56606 28.6865 6.56281C29.3956 5.55957 29.9837 4.70335 29.9837 4.66011C29.9837 4.59092 28.9113 3.85579 28.8075 3.85579C28.7902 3.85579 28.6519 4.072 28.5048 4.33146C28.2194 4.82443 26.801 7.34119 26.4897 7.90335L26.3167 8.2147L26.4983 8.34443C26.9654 8.70768 27.1383 8.75092 27.2681 8.56065ZM18.3685 7.10766C18.5674 7.60928 18.7923 8.24928 18.7923 8.30982C18.6712 8.4136 18.135 8.62982 18.0658 8.60387C17.9707 8.56928 17.2788 7.34982 17.322 7.30658C17.3261 7.30457 17.3384 7.29793 17.3574 7.28772L17.3574 7.28771L17.3574 7.2877C17.4205 7.25382 17.5564 7.18074 17.7026 7.10766C18.161 6.8655 18.2734 6.87414 18.3685 7.10766ZM15.6702 10.083C15.9556 9.79762 15.9815 9.75437 15.8864 9.65924C15.7913 9.5641 15.7394 9.59005 15.4626 9.87546C15.1772 10.1609 15.1599 10.2041 15.2551 10.2992C15.3502 10.3944 15.3934 10.3684 15.6702 10.083ZM24.8547 4.18451C24.8547 4.26235 24.0072 7.78235 23.9726 7.81694C23.9726 7.82559 23.7737 7.791 23.5402 7.74776C23.125 7.66127 23.1164 7.65262 23.125 7.44505C23.1423 7.20289 23.4883 4.51316 23.5488 4.11532C23.5747 3.94235 23.618 3.85586 23.6785 3.87316C23.7304 3.89911 24.0158 3.951 24.3099 4.00289C24.6558 4.06343 24.8547 4.12397 24.8547 4.18451ZM20.7901 7.80842C20.8074 7.79112 20.7641 7.24626 20.6949 6.59761C20.6846 6.50317 20.6753 6.41586 20.6667 6.3352L20.6667 6.3352V6.33519C20.6055 5.76001 20.5803 5.52298 20.4584 5.45198C20.373 5.40221 20.24 5.43401 20.0138 5.4881L20.0138 5.48811L20.0137 5.48813C19.9655 5.49966 19.9131 5.5122 19.856 5.52518C19.6311 5.57707 19.4322 5.62896 19.4149 5.64626C19.3717 5.68085 19.9425 7.85166 20.0117 7.9295C20.0549 7.97274 20.7209 7.86896 20.7901 7.80842ZM17.3999 7.86894C17.5469 8.05057 17.8496 8.69057 17.8064 8.71651C17.4604 8.95867 17.1491 9.123 17.0972 9.0884C16.8896 8.95867 16.4485 8.24949 16.5437 8.18894C16.5956 8.163 16.7858 8.04192 16.9588 7.92948L17.2788 7.72192L17.3999 7.86894ZM16.5606 9.45148C16.7509 9.2958 16.8374 9.10553 16.8374 9.10553C16.7163 8.88067 16.5174 8.62986 16.4742 8.62986C16.4482 8.62986 16.2666 8.76823 16.0763 8.93256L15.739 9.23526L15.9898 9.47742L16.2406 9.71959L16.5606 9.45148ZM19.5792 7.06428C19.7089 7.5832 19.8041 8.00698 19.7868 8.01563C19.683 8.10211 19.0516 8.25779 18.9997 8.2059C18.9306 8.13671 18.3079 6.59725 18.3079 6.49347C18.3079 6.45887 18.4895 6.36374 18.7143 6.2859H18.723C18.7543 6.27489 18.784 6.26431 18.8122 6.25428C19.0336 6.17545 19.161 6.13009 19.2506 6.16988C19.372 6.22384 19.4239 6.43433 19.5461 6.93022C19.5566 6.97278 19.5676 7.01744 19.5792 7.06428ZM25.0279 7.98141C25.0797 7.92087 26.4722 4.32303 26.5068 4.14141C26.5068 4.03763 25.6073 3.66573 25.3133 3.64844C25.27 3.64844 25.1576 3.9079 25.0797 4.2279C24.9889 4.56526 24.8981 4.9048 24.8073 5.24433C24.7165 5.58371 24.6257 5.9231 24.5349 6.26033C24.3187 7.05601 24.1457 7.72195 24.1457 7.7306C24.1457 7.76519 25.0019 8.00736 25.0279 7.98141Z" fill="url(#paint2_linear_7622_166622)"/>
<path fill-rule="evenodd" clip-rule="evenodd" d="M9.4245 8.64859C8.91423 9.50481 8.88828 9.56535 8.99207 9.66913C9.07855 9.75562 9.13909 9.68643 9.43315 9.16751C9.61477 8.83886 9.7618 8.53616 9.7618 8.49291C9.7618 8.32859 9.55423 8.42373 9.4245 8.64859ZM8.04952 10.4651C7.91114 10.8024 7.78141 11.131 7.78141 11.131C7.75546 11.1916 8.93168 11.624 8.98357 11.5635C9.1133 11.4164 9.49384 10.318 9.4333 10.2662C9.36411 10.197 8.44736 9.83372 8.34357 9.83372C8.30898 9.83372 8.17925 10.1191 8.04087 10.4651H8.04952ZM15.1414 28.1428C15.176 28.0995 17.5976 23.7752 17.5976 23.7752C17.5976 23.732 16.8798 23.3168 16.8192 23.3168C16.776 23.3168 16.6203 23.4812 16.4733 23.6887C16.136 24.1471 14.0084 27.1655 13.9392 27.2866C13.896 27.3644 15.0809 28.212 15.1414 28.1428ZM7.96283 16.7264L6.06012 16.7783V15.1956L7.07202 15.2389C7.63418 15.2562 8.50769 15.2908 9.01796 15.3167L9.94337 15.3686L9.96066 15.9654C9.96931 16.294 9.95202 16.5881 9.92607 16.6227C9.89148 16.6486 9.00931 16.7005 7.96283 16.7264ZM23.2364 27.1048C23.2624 27.0788 23.2018 26.4648 23.1153 25.7383C23.0202 25.0118 22.9424 24.3805 22.9424 24.3286C22.9424 24.2334 22.2505 24.2075 22.1035 24.3026C22.0343 24.3459 22.017 24.6918 22.0343 25.7729L22.0516 27.1913L22.6224 27.174C22.9337 27.1653 23.2105 27.1307 23.2364 27.1048ZM6.38023 18.733L6.16401 18.7157L6.06887 17.9806C6.01698 17.5741 5.99104 17.2282 5.99969 17.2195C6.01698 17.2022 6.8559 17.1244 7.87644 17.0379C8.89698 16.9601 9.77915 16.8822 9.83104 16.8649C10.4537 16.7265 10.5402 16.8044 10.5662 17.6087L10.5835 18.0671L8.58563 18.413C7.4959 18.5947 6.50131 18.7417 6.38023 18.733ZM6.63129 20.6788C6.67454 20.7567 7.11562 20.6356 9.44211 19.9264L9.54992 19.8939C10.0709 19.7367 10.6612 19.5587 10.9037 19.494C11.4745 19.3383 11.4832 19.3297 11.4053 19.0356C11.3839 18.9499 11.3493 18.8212 11.3157 18.6966L11.3157 18.6965L11.3157 18.6965L11.3154 18.6955L11.3153 18.6952C11.2948 18.619 11.2747 18.5443 11.2583 18.4821L11.2529 18.4614C11.2263 18.3591 11.2077 18.2879 11.1622 18.2454C11.0577 18.148 10.8112 18.2028 9.99811 18.3835L9.94373 18.3956C9.18265 18.5599 8.42156 18.7242 7.66913 18.8886C6.92535 19.0442 6.30265 19.1913 6.28535 19.2086C6.25075 19.2432 6.56211 20.5664 6.63129 20.6788ZM6.95117 12.8953C6.95117 12.8953 6.96847 12.6444 7.20198 11.745C7.24523 11.598 7.31442 11.4769 7.35766 11.4769C7.48739 11.4769 9.29496 11.9871 9.3555 12.0477C9.40739 12.0996 9.14793 13.2326 9.05279 13.345C9.0182 13.3969 7.02036 12.9644 6.95117 12.8953ZM28.0364 22.3397C28.0969 22.5127 28.1402 22.4954 28.4948 22.1408C28.7715 21.8554 28.7888 21.8035 28.7023 21.7083C28.6072 21.6132 28.5553 21.6392 28.2872 21.9073C28.0796 22.1235 28.0018 22.2532 28.0364 22.3397ZM16.4732 23.3945C16.4386 23.507 13.3683 27.5891 13.3164 27.5891C13.2213 27.5891 12.2181 26.7416 12.2181 26.6551C12.2181 26.6205 13.0051 25.721 13.9651 24.6659C14.9251 23.6107 15.7294 22.7459 15.7554 22.7459C15.8418 22.7459 16.4732 23.3167 16.4732 23.3945ZM6.41501 14.011C6.37176 14.4261 6.35447 14.7894 6.35447 14.7894C6.38906 14.8153 9.3642 15.1007 9.39014 15.0748C9.40642 15.0666 9.44568 14.7981 9.4935 14.4709L9.4935 14.4708L9.49351 14.4708L9.49351 14.4708L9.49352 14.4708L9.50257 14.4088C9.58906 13.7688 9.58906 13.7515 9.44203 13.7256C9.28636 13.691 6.58798 13.2586 6.53609 13.2586C6.51879 13.2586 6.4669 13.5958 6.41501 14.011ZM27.4829 23.7668C27.3704 23.8619 26.6699 24.3116 26.6353 24.3116C26.5142 24.3116 26.1164 23.2998 26.2115 23.2392C26.272 23.2046 26.4191 23.1095 26.5315 23.0316C26.5568 23.0172 26.5817 23.0028 26.6055 22.989C26.6957 22.9366 26.7704 22.8933 26.791 22.8933C26.8515 22.8933 27.4829 23.6976 27.4829 23.7668ZM25.5976 25.6002C25.6581 25.5397 24.9749 23.7926 24.8797 23.7667C24.8538 23.758 24.6721 23.8099 24.4905 23.8705C24.2916 23.931 24.1446 24.0261 24.1446 24.078C24.1446 24.1818 24.5684 25.8942 24.5943 25.9202C24.6289 25.9461 25.537 25.6521 25.5976 25.6002ZM27.9847 22.556L28.2182 22.7981L27.8636 23.0922C27.4312 23.4554 27.4225 23.4554 27.2236 23.0922L27.0593 22.8068L27.2495 22.6511C27.2961 22.6153 27.347 22.5751 27.395 22.5372C27.4631 22.4835 27.5254 22.4343 27.5609 22.409C27.7166 22.2879 27.7252 22.2879 27.9847 22.556ZM25.8225 25.0899C25.9955 25.0293 26.5836 24.7439 26.6269 24.7007C26.6788 24.6574 25.909 23.3861 25.8312 23.3861C25.788 23.3861 25.6236 23.4553 25.468 23.5418C25.3123 23.6196 25.1652 23.6974 25.1566 23.7147C25.1393 23.7234 25.2431 24.0607 25.3901 24.4499C25.6496 25.1245 25.6669 25.1591 25.8225 25.0899ZM23.9978 24.2942C24.1967 25.0207 24.508 26.2834 24.508 26.3526C24.508 26.4304 23.4702 26.6466 23.401 26.5861C23.3837 26.5688 23.3232 26.1364 23.2626 25.6261C23.2267 25.3284 23.1877 25.0186 23.1584 24.7851L23.1583 24.7848L23.1583 24.7843L23.1582 24.7834C23.1382 24.6243 23.1226 24.5008 23.1156 24.4412L23.0724 24.1818L23.4529 24.1126C23.6605 24.078 23.8507 24.0434 23.8767 24.0347C23.9113 24.0347 23.9632 24.1472 23.9978 24.2942ZM20.9446 24.3113H21.87L21.8354 27.7016L21.23 27.6757C20.9014 27.6584 20.616 27.6411 20.6073 27.6324C20.59 27.6238 20.6679 26.9751 20.763 26.1881C20.8668 25.4097 20.9446 24.6659 20.9446 24.5362V24.3113ZM20.3045 28.1167C20.339 28.0821 20.7974 24.7956 20.7974 24.5189C20.8061 24.3459 20.7715 24.3286 20.4774 24.2767C20.2958 24.2507 20.1055 24.2162 20.0536 24.1989C19.9931 24.1729 19.9239 24.2853 19.8547 24.5362C19.6731 25.1675 19.0331 27.8226 19.0331 27.9091C19.1023 27.9524 20.2699 28.1426 20.3045 28.1167ZM13.472 24.8823L11.5866 26.8196L11.0677 26.2661C10.7909 25.9634 10.566 25.6866 10.566 25.6521C10.5747 25.6261 11.2752 25.0207 12.1141 24.3029C12.9531 23.5937 13.8785 22.8066 14.1639 22.5558C14.4493 22.305 14.7087 22.1061 14.7433 22.1061C14.8471 22.1061 15.4006 22.7461 15.3747 22.8499C15.366 22.9018 14.5012 23.8185 13.472 24.8823ZM7.565 22.5559C7.67743 22.5386 12.2439 20.4975 12.3045 20.4283C12.3564 20.3851 12.1574 19.7797 12.0104 19.4856C11.9361 19.337 11.9327 19.3382 10.9691 19.6698L10.8255 19.7191C7.63419 20.8262 6.96825 21.077 6.9423 21.1375C6.89041 21.2759 7.45257 22.5645 7.565 22.5559ZM19.7339 24.3375C19.7339 24.4672 18.6961 28.2986 18.6442 28.3504C18.5923 28.4023 17.3815 28.0045 17.3815 27.9267C17.3815 27.8949 17.6509 27.1788 17.9893 26.2793L17.9893 26.2792L18.082 26.0326C18.4712 25.0294 18.8085 24.1472 18.8258 24.0867C18.8777 23.9396 19.7339 24.1818 19.7339 24.3375ZM10.0731 25.6173C10.1164 25.5914 11.111 24.7957 12.2699 23.8616L14.3888 22.1665L14.0948 21.7427C13.9304 21.5092 13.7748 21.3189 13.7488 21.3189C13.7315 21.3189 12.9272 21.8292 11.9672 22.4606L11.7205 22.6234L11.7205 22.6235C9.18681 24.2967 9.12178 24.3397 9.12178 24.4152C9.12178 24.5708 9.98664 25.6692 10.0731 25.6173ZM18.2115 25.2456C17.9261 25.9548 17.6407 26.6553 17.3467 27.3559C17.1218 27.918 16.8969 28.3764 16.8537 28.3764C16.8104 28.3678 16.5164 28.238 16.1964 28.0737L15.6256 27.771L16.724 25.7213C17.3294 24.597 17.8396 23.6716 17.8569 23.6716C17.9261 23.6716 18.6613 24.0607 18.6613 24.104C18.6613 24.1299 18.4623 24.6489 18.2115 25.2456ZM8.67212 24.2076C8.8105 24.1557 13.1348 21.5178 13.2386 21.4227C13.3337 21.3362 13.0051 20.5405 12.8408 20.4368C12.7716 20.4368 11.6646 20.9557 10.3327 21.613C8.98347 22.2789 7.86779 22.8324 7.85915 22.8411C7.78996 22.9103 8.58563 24.2422 8.67212 24.2076Z" fill="url(#paint3_linear_7622_166622)"/>
</g>
<path d="M53.6719 23.2375V7.44531H60.1954C61.3778 7.44531 62.3982 7.67664 63.2567 8.13931C64.1203 8.59683 64.786 9.23685 65.2539 10.0594C65.7217 10.8767 65.9555 11.8277 65.9555 12.9124C65.9555 14.0023 65.7165 14.9559 65.2384 15.7732C64.7655 16.5854 64.0895 17.2152 63.2104 17.6625C62.3314 18.1097 61.2878 18.3333 60.0797 18.3333H56.0546V15.326H59.3703C59.9461 15.326 60.4267 15.2258 60.8123 15.0253C61.203 14.8248 61.4986 14.5446 61.6991 14.1848C61.8996 13.8198 61.9998 13.3957 61.9998 12.9124C61.9998 12.4241 61.8996 12.0025 61.6991 11.6478C61.4986 11.288 61.203 11.0104 60.8123 10.815C60.4216 10.6197 59.9409 10.522 59.3703 10.522H57.4888V23.2375H53.6719ZM70.7519 23.438C69.9961 23.438 69.3253 23.3121 68.7392 23.0602C68.1584 22.8031 67.6983 22.4175 67.359 21.9035C67.0248 21.3843 66.8578 20.734 66.8578 19.9526C66.8578 19.2946 66.9734 18.7394 67.2047 18.287C67.4361 17.8346 67.7548 17.4671 68.1609 17.1844C68.567 16.9017 69.0348 16.6883 69.5644 16.5444C70.0938 16.3953 70.6593 16.295 71.2608 16.2436C71.9342 16.1819 72.4765 16.1177 72.8878 16.0508C73.299 15.9789 73.5972 15.8786 73.7823 15.7501C73.9724 15.6164 74.0675 15.4288 74.0675 15.1872V15.1486C74.0675 14.7528 73.9314 14.4469 73.6589 14.231C73.3864 14.0151 73.0188 13.9072 72.5562 13.9072C72.0575 13.9072 71.6566 14.0151 71.3533 14.231C71.05 14.4469 70.8572 14.7451 70.7749 15.1255L67.2973 15.0021C67.4001 14.2824 67.6648 13.6399 68.0915 13.0744C68.5233 12.5038 69.1145 12.0565 69.8651 11.7326C70.6208 11.4036 71.5281 11.2391 72.5871 11.2391C73.3427 11.2391 74.0393 11.3291 74.6767 11.509C75.3142 11.6838 75.8694 11.9408 76.3423 12.2801C76.8153 12.6143 77.1803 13.0255 77.4373 13.5139C77.6994 14.0023 77.8305 14.56 77.8305 15.1872V23.2375H74.2835V21.5873H74.191C73.9801 21.9883 73.7103 22.3276 73.3813 22.6052C73.0575 22.8829 72.6745 23.091 72.2323 23.2298C71.7954 23.3686 71.3019 23.438 70.7519 23.438ZM71.9162 20.9705C72.3223 20.9705 72.6873 20.8882 73.0111 20.7237C73.3402 20.5592 73.6023 20.3331 73.7977 20.0452C73.9931 19.7521 74.0907 19.4128 74.0907 19.0273V17.9015C73.9828 17.9581 73.8517 18.0094 73.6974 18.0557C73.5484 18.102 73.3839 18.1457 73.2039 18.1868C73.024 18.2279 72.839 18.2639 72.6488 18.2947C72.4585 18.3256 72.276 18.3539 72.1012 18.3796C71.7466 18.4361 71.4433 18.5235 71.1914 18.6418C70.9446 18.7599 70.7544 18.9142 70.6208 19.1044C70.4922 19.2895 70.428 19.5105 70.428 19.7676C70.428 20.1583 70.5667 20.4564 70.8443 20.662C71.1271 20.8677 71.4844 20.9705 71.9162 20.9705ZM85.6573 27.9258C84.5315 27.9258 83.5675 27.769 82.7656 27.4554C81.9637 27.1418 81.334 26.7126 80.8764 26.1677C80.4189 25.6228 80.1438 25.0059 80.0514 24.3171L83.6216 24.1166C83.6884 24.3582 83.8117 24.569 83.9917 24.7489C84.1767 24.9288 84.4158 25.0676 84.7088 25.1653C85.0069 25.2629 85.3565 25.3118 85.7575 25.3118C86.3899 25.3118 86.9116 25.1576 87.3228 24.8491C87.7392 24.5458 87.9474 24.0138 87.9474 23.2529V21.171H87.8164C87.6673 21.5359 87.4411 21.8624 87.1378 22.1503C86.8345 22.4382 86.4566 22.6644 86.0042 22.8288C85.557 22.9933 85.0429 23.0756 84.4621 23.0756C83.5984 23.0756 82.8067 22.8751 82.0871 22.4741C81.3725 22.068 80.7993 21.4408 80.3675 20.5926C79.9408 19.7393 79.7275 18.6418 79.7275 17.3C79.7275 15.9172 79.9485 14.7785 80.3906 13.884C80.8327 12.9844 81.411 12.3187 82.1256 11.8869C82.8453 11.4551 83.619 11.2391 84.4466 11.2391C85.0686 11.2391 85.6007 11.3471 86.0428 11.563C86.4901 11.7738 86.8576 12.0462 87.1455 12.3804C87.4334 12.7145 87.6518 13.0615 87.8009 13.4214H87.9089V11.3934H91.6642V23.2838C91.6642 24.2862 91.4123 25.1319 90.9085 25.8207C90.4047 26.5096 89.7004 27.0314 88.7956 27.386C87.8909 27.7459 86.8448 27.9258 85.6573 27.9258ZM85.7729 20.3304C86.2304 20.3304 86.6211 20.2096 86.945 19.9681C87.2688 19.7264 87.5182 19.3794 87.693 18.9271C87.8678 18.4747 87.9552 17.9324 87.9552 17.3C87.9552 16.6575 87.8678 16.1048 87.693 15.6421C87.5233 15.1743 87.274 14.8145 86.945 14.5626C86.6211 14.3107 86.2304 14.1848 85.7729 14.1848C85.3051 14.1848 84.9093 14.3133 84.5854 14.5703C84.2616 14.8274 84.0149 15.1898 83.8452 15.6576C83.6806 16.1202 83.5984 16.6677 83.5984 17.3C83.5984 17.9324 83.6833 18.4747 83.8529 18.9271C84.0225 19.3794 84.2667 19.7264 84.5854 19.9681C84.9093 20.2096 85.3051 20.3304 85.7729 20.3304ZM99.6046 23.4612C98.3657 23.4612 97.2964 23.217 96.3968 22.7286C95.5023 22.235 94.8135 21.5334 94.3302 20.6235C93.8521 19.7084 93.6131 18.6212 93.6131 17.3617C93.6131 16.1382 93.8548 15.069 94.338 14.1539C94.8212 13.2337 95.5023 12.5192 96.3814 12.0102C97.2605 11.4962 98.2963 11.2391 99.4889 11.2391C100.332 11.2391 101.103 11.3702 101.802 11.6324C102.501 11.8946 103.105 12.2827 103.614 12.7968C104.123 13.3108 104.519 13.9457 104.802 14.7014C105.085 15.4519 105.226 16.313 105.226 17.2846V18.2253H94.9317V16.0354H101.717C101.712 15.6344 101.617 15.2772 101.432 14.9636C101.247 14.65 100.993 14.4058 100.669 14.231C100.35 14.0511 99.9825 13.9611 99.5661 13.9611C99.1446 13.9611 98.7666 14.0562 98.4325 14.2464C98.0984 14.4315 97.8336 14.686 97.6383 15.0098C97.443 15.3286 97.3401 15.691 97.3299 16.0971V18.3256C97.3299 18.8088 97.425 19.233 97.6151 19.5979C97.8053 19.9578 98.0752 20.238 98.4248 20.4384C98.7744 20.6389 99.1908 20.7391 99.674 20.7391C100.008 20.7391 100.311 20.6929 100.584 20.6003C100.856 20.5079 101.09 20.3716 101.286 20.1916C101.481 20.0118 101.627 19.7906 101.725 19.5285L105.187 19.6288C105.043 20.405 104.727 21.081 104.239 21.6567C103.756 22.2274 103.121 22.672 102.334 22.9908C101.548 23.3044 100.638 23.4612 99.6046 23.4612ZM107.152 23.2375V7.44531H113.675C114.858 7.44531 115.878 7.67664 116.737 8.13931C117.6 8.59683 118.266 9.23685 118.734 10.0594C119.202 10.8767 119.435 11.8277 119.435 12.9124C119.435 14.0023 119.196 14.9559 118.718 15.7732C118.245 16.5854 117.569 17.2152 116.69 17.6625C115.811 18.1097 114.768 18.3333 113.56 18.3333H109.534V15.326H112.85C113.426 15.326 113.907 15.2258 114.292 15.0253C114.683 14.8248 114.979 14.5446 115.179 14.1848C115.379 13.8198 115.48 13.3957 115.48 12.9124C115.48 12.4241 115.379 12.0025 115.179 11.6478C114.979 11.288 114.683 11.0104 114.292 10.815C113.901 10.6197 113.421 10.522 112.85 10.522H110.969V23.2375H107.152ZM126.62 23.4612C125.381 23.4612 124.312 23.217 123.412 22.7286C122.518 22.235 121.829 21.5334 121.346 20.6235C120.868 19.7084 120.629 18.6212 120.629 17.3617C120.629 16.1382 120.87 15.069 121.354 14.1539C121.837 13.2337 122.518 12.5192 123.397 12.0102C124.276 11.4962 125.312 11.2391 126.505 11.2391C127.348 11.2391 128.119 11.3702 128.818 11.6324C129.517 11.8946 130.121 12.2827 130.63 12.7968C131.139 13.3108 131.535 13.9457 131.817 14.7014C132.1 15.4519 132.242 16.313 132.242 17.2846V18.2253H121.947V16.0354H128.733C128.728 15.6344 128.633 15.2772 128.448 14.9636C128.263 14.65 128.008 14.4058 127.684 14.231C127.366 14.0511 126.998 13.9611 126.582 13.9611C126.16 13.9611 125.782 14.0562 125.448 14.2464C125.114 14.4315 124.849 14.686 124.654 15.0098C124.459 15.3286 124.356 15.691 124.345 16.0971V18.3256C124.345 18.8088 124.441 19.233 124.631 19.5979C124.821 19.9578 125.091 20.238 125.44 20.4384C125.79 20.6389 126.206 20.7391 126.69 20.7391C127.024 20.7391 127.327 20.6929 127.6 20.6003C127.872 20.5079 128.106 20.3716 128.301 20.1916C128.497 20.0118 128.643 19.7906 128.741 19.5285L132.203 19.6288C132.059 20.405 131.743 21.081 131.255 21.6567C130.771 22.2274 130.136 22.672 129.35 22.9908C128.563 23.3044 127.654 23.4612 126.62 23.4612ZM139.704 23.4612C138.465 23.4612 137.396 23.217 136.496 22.7286C135.602 22.235 134.913 21.5334 134.43 20.6235C133.951 19.7084 133.712 18.6212 133.712 17.3617C133.712 16.1382 133.954 15.069 134.437 14.1539C134.921 13.2337 135.602 12.5192 136.481 12.0102C137.36 11.4962 138.396 11.2391 139.588 11.2391C140.431 11.2391 141.202 11.3702 141.902 11.6324C142.601 11.8946 143.205 12.2827 143.714 12.7968C144.222 13.3108 144.619 13.9457 144.901 14.7014C145.184 15.4519 145.325 16.313 145.325 17.2846V18.2253H135.031V16.0354H141.817C141.812 15.6344 141.716 15.2772 141.531 14.9636C141.346 14.65 141.092 14.4058 140.768 14.231C140.449 14.0511 140.082 13.9611 139.665 13.9611C139.244 13.9611 138.866 14.0562 138.532 14.2464C138.198 14.4315 137.933 14.686 137.738 15.0098C137.542 15.3286 137.44 15.691 137.429 16.0971V18.3256C137.429 18.8088 137.524 19.233 137.714 19.5979C137.905 19.9578 138.175 20.238 138.524 20.4384C138.874 20.6389 139.29 20.7391 139.773 20.7391C140.107 20.7391 140.411 20.6929 140.683 20.6003C140.956 20.5079 141.19 20.3716 141.385 20.1916C141.58 20.0118 141.727 19.7906 141.824 19.5285L145.287 19.6288C145.142 20.405 144.827 21.081 144.338 21.6567C143.855 22.2274 143.22 22.672 142.434 22.9908C141.647 23.3044 140.737 23.4612 139.704 23.4612ZM150.651 20.1299L150.667 15.6344H151.192L154.523 11.3934H158.794L153.844 17.4697H152.849L150.651 20.1299ZM147.251 23.2375V7.44531H151.022V23.2375H147.251ZM154.607 23.2375L151.507 18.3179L153.991 15.6421L158.964 23.2375H154.607Z" fill="#17191B"/>
<defs>
<linearGradient id="paint0_linear_7622_166622" x1="24.6171" y1="8.95312" x2="24.6171" y2="32.0003" gradientUnits="userSpaceOnUse">
<stop stop-color="#BFFF8D"/>
<stop offset="1" stop-color="#085601"/>
</linearGradient>
<linearGradient id="paint1_linear_7622_166622" x1="19.1683" y1="0" x2="19.1683" y2="23.0571" gradientUnits="userSpaceOnUse">
<stop stop-color="#DC06FF"/>
<stop offset="1" stop-color="#0B220B"/>
</linearGradient>
<linearGradient id="paint2_linear_7622_166622" x1="26.6002" y1="3.57031" x2="26.6002" y2="23.6619" gradientUnits="userSpaceOnUse">
<stop stop-color="#D7486A"/>
<stop offset="1" stop-color="#0039CC"/>
</linearGradient>
<linearGradient id="paint3_linear_7622_166622" x1="17.3732" y1="8.41016" x2="17.3732" y2="28.3764" gradientUnits="userSpaceOnUse">
<stop stop-color="#FFD170"/>
<stop offset="1" stop-color="#443617"/>
</linearGradient>
<clipPath id="clip0_7622_166622">
<rect width="32" height="32" fill="white" transform="translate(6)"/>
</clipPath>
</defs>
</svg>
