<svg xmlns="http://www.w3.org/2000/svg" xmlns:xlink="http://www.w3.org/1999/xlink" width="1024" height="1024"><path fill="#FEF554" d="M509.16 46.0738C512.331 45.9693 515.222 46.1386 518.137 47.5149C521.552 49.1265 523.63 51.754 524.819 55.2852C527.643 63.6656 528.501 87.7076 524.321 95.4907C522.498 98.8838 519.082 100.265 515.623 101.427C512.841 101.914 509.797 101.971 507.082 101.103C504.203 100.182 501.494 97.9692 500.214 95.2038C496.397 86.9548 496.271 62.4359 499.68 54.0341C501.466 49.6306 504.996 47.7309 509.16 46.0738Z"/><path fill="#FEF554" d="M825.379 232.586C828.246 232.471 830.626 232.644 833.271 233.848C837.154 235.615 840.412 238.907 841.734 243.008Q841.934 243.62 842.071 244.249Q842.208 244.878 842.28 245.518Q842.352 246.158 842.358 246.802Q842.365 247.446 842.305 248.087Q842.246 248.728 842.122 249.36Q841.998 249.992 841.81 250.608Q841.623 251.224 841.373 251.817Q841.124 252.411 840.815 252.976C836.435 261.16 816.442 270.45 807.594 273.167C804.622 273.208 801.869 272.577 799.189 271.285C795.058 269.294 792.238 266.072 790.798 261.71C789.648 258.226 789.956 254.562 791.731 251.346C796.623 242.482 815.809 235.605 825.379 232.586Z"/><path fill="#FEF554" d="M327.419 94.1373C329.465 93.9696 331.67 94.3516 333.451 95.4089C340.997 99.8871 356.659 120.644 358.419 129.096Q358.561 129.766 358.633 130.447Q358.704 131.128 358.705 131.813Q358.706 132.498 358.636 133.18Q358.565 133.861 358.425 134.531Q358.284 135.202 358.075 135.854Q357.866 136.506 357.59 137.133Q357.315 137.76 356.975 138.355Q356.636 138.95 356.237 139.507C353.707 143.049 349.445 144.662 345.303 145.296C342.369 145.051 339.646 144.448 337.108 142.885C333.045 140.385 319.414 122.185 316.529 117.382C315.245 115.244 314.176 112.939 313.64 110.494C312.892 107.084 313.109 103.409 315.096 100.44C317.793 96.4099 322.892 94.929 327.419 94.1373Z"/><path fill="#FEF554" d="M691.139 93.5928C693.942 93.4487 696.554 93.4314 699.294 94.1992C702.714 95.1578 705.532 97.1655 707.169 100.362C709.288 104.499 708.93 109.161 707.548 113.461C704.533 122.849 693.427 141.341 684.678 145.761C681.41 146.151 677.772 145.803 674.679 144.638C671.409 143.406 668.957 140.901 667.676 137.665C665.414 131.947 667.238 125.928 669.685 120.611C673.954 111.332 681.111 97.2929 691.139 93.5928Z"/><path fill="#FEF554" d="M193.192 233.566C203.302 234.27 214.452 239.054 223.236 243.873C228.176 246.584 233.533 250.25 235.01 256.029C236.099 260.295 234.658 264.872 232.303 268.465C229.908 272.12 226.748 273.611 222.598 274.525C213.504 274.439 202.953 268.52 195.038 264.203C190.056 261.486 181.917 257.387 180.377 251.448C179.443 247.845 180.731 243.685 182.655 240.616C185.132 236.663 188.792 234.684 193.192 233.566Z"/><path fill="#000018" d="M429.813 912.91C468.045 913.503 506.358 913.016 544.6 913.009C554.888 913.006 565.219 912.824 575.504 913.082C580.997 913.22 586.769 914.044 592.227 913.682C590.815 919.374 588.603 925.018 586.001 930.265C576.252 949.916 558.163 965.212 537.403 972.172Q536.438 972.49 535.466 972.785Q534.494 973.079 533.516 973.35Q532.537 973.62 531.551 973.867Q530.566 974.114 529.575 974.336Q528.584 974.559 527.588 974.757Q526.592 974.955 525.591 975.129Q524.591 975.303 523.586 975.452Q522.581 975.601 521.573 975.726Q520.565 975.851 519.555 975.951Q518.544 976.051 517.531 976.127Q516.518 976.202 515.504 976.253Q514.49 976.303 513.474 976.329Q512.459 976.355 511.443 976.356Q510.428 976.357 509.412 976.333Q508.397 976.309 507.383 976.261Q506.368 976.212 505.355 976.139Q504.342 976.065 503.331 975.967Q502.32 975.869 501.312 975.746Q500.304 975.624 499.299 975.476Q498.294 975.329 497.293 975.157Q496.292 974.985 495.296 974.789Q494.299 974.593 493.308 974.372Q492.316 974.152 491.331 973.907Q490.345 973.662 489.365 973.394Q488.386 973.125 487.413 972.832Q486.441 972.54 485.475 972.224Q484.51 971.908 483.553 971.568Q482.596 971.228 481.647 970.865Q480.699 970.502 479.759 970.116Q478.82 969.73 477.89 969.321Q476.961 968.913 476.041 968.481Q475.122 968.05 474.213 967.596C451.389 955.972 437.606 936.87 429.813 912.91Z"/><path fill="#353535" d="M400.295 879.275C411.75 880.505 424.019 879.776 435.579 879.793Q470.695 879.923 505.81 879.583L586.204 879.593C599.277 879.614 612.408 880.184 625.468 879.612C631.402 880.366 636.519 881.77 640.448 886.693C643.105 890.023 644.268 894.211 643.587 898.424Q643.521 898.86 643.432 899.292Q643.344 899.724 643.233 900.15Q643.122 900.577 642.989 900.997Q642.856 901.417 642.701 901.83Q642.546 902.243 642.37 902.647Q642.194 903.051 641.998 903.446Q641.801 903.84 641.584 904.224Q641.367 904.608 641.13 904.979Q640.894 905.351 640.638 905.711Q640.382 906.07 640.108 906.415Q639.834 906.76 639.543 907.091Q639.251 907.422 638.943 907.737Q638.635 908.052 638.31 908.35Q637.986 908.649 637.646 908.93Q637.307 909.211 636.953 909.474Q636.6 909.738 636.233 909.982C625.54 916.99 603.76 910.804 592.227 913.682C586.769 914.044 580.997 913.22 575.504 913.082C565.219 912.824 554.888 913.006 544.6 913.009C506.358 913.016 468.045 913.503 429.813 912.91C417.772 912.948 396.016 916.402 386.61 908.114Q386.011 907.595 385.467 907.019Q384.923 906.443 384.44 905.816Q383.957 905.188 383.538 904.516Q383.12 903.843 382.771 903.131Q382.422 902.42 382.147 901.678Q381.871 900.935 381.671 900.169Q381.47 899.402 381.348 898.62Q381.226 897.837 381.182 897.046C380.976 892.59 382.808 888.236 385.793 884.978C389.926 880.467 394.483 879.517 400.295 879.275Z"/><path fill="#353535" d="M401.073 827.509L539.208 827.565L593.193 827.602C604.189 827.606 615.198 827.86 626.188 827.45C631.447 828.025 636.015 829.552 639.513 833.738Q639.797 834.081 640.062 834.439Q640.328 834.797 640.575 835.167Q640.821 835.538 641.049 835.921Q641.276 836.304 641.484 836.698Q641.692 837.092 641.879 837.496Q642.066 837.9 642.232 838.313Q642.399 838.727 642.543 839.148Q642.688 839.569 642.811 839.997Q642.934 840.425 643.035 840.859Q643.136 841.293 643.215 841.731Q643.293 842.169 643.349 842.611Q643.405 843.053 643.439 843.497Q643.472 843.941 643.482 844.387Q643.493 844.832 643.481 845.277Q643.468 845.722 643.433 846.166Q643.398 846.61 643.34 847.052Q643.239 847.861 643.057 848.655Q642.875 849.449 642.614 850.221Q642.352 850.993 642.014 851.734Q641.676 852.476 641.265 853.179Q640.853 853.882 640.373 854.541Q639.892 855.199 639.347 855.805Q638.803 856.411 638.2 856.959Q637.596 857.507 636.941 857.991C633.596 860.453 629.614 861.453 625.53 861.72Q625.325 870.665 625.468 879.612C612.408 880.184 599.277 879.614 586.204 879.593L505.81 879.583Q470.695 879.923 435.579 879.793C424.019 879.776 411.75 880.505 400.295 879.275C401.235 874.112 401.039 869.079 400.761 863.862L400.684 862.224C399.126 860.685 390.753 860.916 385.938 856.492Q385.618 856.195 385.313 855.882Q385.009 855.569 384.721 855.241Q384.434 854.913 384.163 854.57Q383.893 854.228 383.641 853.872Q383.388 853.515 383.155 853.146Q382.921 852.778 382.707 852.397Q382.493 852.017 382.299 851.626Q382.105 851.235 381.931 850.835Q381.757 850.434 381.604 850.025Q381.452 849.616 381.32 849.2Q381.189 848.784 381.079 848.361Q380.97 847.939 380.882 847.511Q380.794 847.083 380.729 846.652Q380.664 846.22 380.621 845.786Q380.578 845.352 380.557 844.916Q380.537 844.479 380.539 844.043Q380.541 843.229 380.623 842.42Q380.705 841.61 380.866 840.812Q381.027 840.015 381.265 839.236Q381.504 838.458 381.817 837.707Q382.131 836.956 382.516 836.24Q382.902 835.523 383.356 834.848Q383.81 834.173 384.329 833.545Q384.847 832.918 385.424 832.344C389.916 827.922 395.136 827.48 401.073 827.509Z"/><path fill="#818080" d="M400.761 863.862C400.868 863.102 401.046 862.38 401.225 861.634C408.211 860.777 416.083 861.498 423.148 861.51L467.788 861.49L625.53 861.72Q625.325 870.665 625.468 879.612C612.408 880.184 599.277 879.614 586.204 879.593L505.81 879.583Q470.695 879.923 435.579 879.793C424.019 879.776 411.75 880.505 400.295 879.275C401.235 874.112 401.039 869.079 400.761 863.862Z"/><path fill="#353535" d="M579.467 772.574C593.479 772.368 607.347 772.203 621.361 772.554C628.343 773.367 634.468 774.5 639.074 780.432Q639.347 780.779 639.603 781.14Q639.858 781.501 640.095 781.875Q640.331 782.248 640.548 782.634Q640.765 783.019 640.962 783.415Q641.159 783.81 641.335 784.216Q641.512 784.621 641.667 785.035Q641.822 785.449 641.956 785.87Q642.09 786.292 642.202 786.72Q642.314 787.147 642.404 787.58Q642.494 788.013 642.562 788.45Q642.629 788.887 642.674 789.327Q642.72 789.766 642.742 790.208Q642.765 790.649 642.764 791.091Q642.764 791.534 642.741 791.975Q642.718 792.417 642.673 792.856Q642.627 793.296 642.559 793.733C641.875 798.081 639.569 801.751 635.929 804.232C633.064 806.185 629.865 807.248 626.432 807.615C626.385 814.218 626.46 820.853 626.188 827.45C615.198 827.86 604.189 827.606 593.193 827.602L539.208 827.565L401.073 827.509C401.107 821.819 401.14 816.154 400.829 810.47C400.791 810.102 400.744 809.558 400.667 809.21C399.971 806.092 391.03 806.219 388.035 803.948Q387.675 803.669 387.329 803.372Q386.984 803.076 386.654 802.761Q386.324 802.447 386.011 802.115Q385.698 801.784 385.403 801.437Q385.108 801.09 384.831 800.729Q384.554 800.367 384.296 799.991Q384.038 799.615 383.8 799.227Q383.562 798.839 383.345 798.438Q383.127 798.038 382.931 797.627Q382.734 797.216 382.56 796.795Q382.385 796.374 382.232 795.945Q382.079 795.516 381.949 795.079Q381.818 794.643 381.711 794.2Q381.603 793.757 381.518 793.31Q381.434 792.862 381.373 792.411Q381.312 791.959 381.274 791.505Q381.195 790.635 381.204 789.761Q381.213 788.887 381.31 788.018Q381.406 787.15 381.589 786.295Q381.772 785.441 382.04 784.609Q382.307 783.777 382.657 782.976Q383.007 782.175 383.435 781.414Q383.862 780.652 384.365 779.937Q384.867 779.221 385.438 778.56C389.92 773.404 395.69 772.871 402.068 772.506L455.091 772.467C463.775 772.464 473.451 771.661 482.034 772.907Q490.76 773.075 499.487 772.992Q512.504 772.902 525.52 772.997C531.65 772.982 537.797 773.062 543.924 772.924C555.765 772.661 567.623 772.669 579.467 772.574Z"/><path fill="#818080" d="M400.829 810.47C400.865 808.959 400.708 808.638 401.63 807.474C403.894 806.732 458.691 807.434 465.679 807.432L570.981 807.237C589.38 807.239 608.067 806.664 626.432 807.615C626.385 814.218 626.46 820.853 626.188 827.45C615.198 827.86 604.189 827.606 593.193 827.602L539.208 827.565L401.073 827.509C401.107 821.819 401.14 816.154 400.829 810.47Z"/><path fill="#E7B801" d="M466.964 144.968C477.625 142.882 488.754 142.205 499.591 141.774Q502.34 141.664 505.091 141.607Q507.842 141.55 510.594 141.548Q513.346 141.545 516.097 141.595Q518.848 141.646 521.598 141.751Q524.347 141.855 527.094 142.013Q529.841 142.172 532.585 142.383Q535.328 142.595 538.067 142.86Q540.806 143.126 543.539 143.444Q546.272 143.763 548.998 144.135Q551.725 144.507 554.443 144.932Q557.162 145.357 559.871 145.836Q562.581 146.314 565.281 146.845Q567.981 147.376 570.67 147.959Q573.359 148.543 576.036 149.179Q578.713 149.815 581.377 150.503Q584.042 151.191 586.692 151.931Q589.342 152.671 591.977 153.462Q594.613 154.254 597.232 155.097Q599.851 155.94 602.454 156.833Q605.056 157.727 607.641 158.672Q610.225 159.616 612.79 160.611Q615.356 161.606 617.901 162.65Q620.447 163.695 622.972 164.789Q625.497 165.883 627.999 167.026Q630.502 168.17 632.982 169.362Q635.463 170.553 637.919 171.793Q640.375 173.034 642.807 174.321Q645.238 175.609 647.645 176.944Q650.051 178.279 652.43 179.661Q654.81 181.042 657.162 182.47Q659.514 183.898 661.838 185.372Q664.161 186.845 666.456 188.364Q669.468 190.367 672.43 192.444Q675.391 194.521 678.3 196.671Q681.209 198.821 684.064 201.042Q686.919 203.263 689.718 205.555Q692.517 207.846 695.259 210.206Q698 212.566 700.682 214.994Q703.364 217.421 705.985 219.914Q708.606 222.407 711.164 224.965Q713.723 227.522 716.217 230.142Q718.711 232.762 721.14 235.443Q723.568 238.124 725.929 240.864Q728.29 243.605 730.583 246.403Q732.875 249.201 735.098 252.055Q737.321 254.909 739.472 257.817Q741.623 260.725 743.701 263.686Q745.779 266.647 747.783 269.658Q749.788 272.669 751.717 275.729Q753.646 278.789 755.498 281.896Q757.351 285.003 759.125 288.155Q760.9 291.307 762.596 294.502Q764.293 297.697 765.909 300.933Q767.526 304.169 769.061 307.445Q770.597 310.72 772.051 314.032Q773.505 317.344 774.877 320.691Q776.248 324.039 777.536 327.419Q778.824 330.799 780.028 334.21Q781.232 337.621 782.351 341.061Q783.47 344.501 784.503 347.968Q785.537 351.434 786.484 354.925Q787.431 358.416 788.291 361.93Q789.151 365.444 789.924 368.977Q790.697 372.511 791.382 376.063C805.704 449.554 787.788 523.048 746.168 584.719Q736.927 598.703 726.37 611.723Q715.814 624.743 704.042 636.675C692.605 648.062 679.384 657.391 667.988 668.767Q665.801 670.966 663.701 673.247Q661.6 675.529 659.59 677.891Q657.579 680.252 655.662 682.689Q653.744 685.126 651.922 687.636Q650.1 690.145 648.377 692.723Q646.653 695.301 645.03 697.944Q643.408 700.587 641.889 703.291Q640.369 705.994 638.956 708.755Q637.542 711.515 636.237 714.328Q634.931 717.141 633.735 720.002Q632.539 722.863 631.455 725.769Q630.37 728.674 629.399 731.62Q628.428 734.565 627.571 737.545Q626.715 740.526 625.974 743.537Q625.233 746.549 624.609 749.586Q623.986 752.624 623.48 755.684C622.55 761.182 621.54 766.983 621.361 772.554C607.347 772.203 593.479 772.368 579.467 772.574C580.661 766.172 580.697 759.497 581.661 753.03Q582.661 746.755 584.055 740.555Q585.448 734.355 587.229 728.255Q589.01 722.155 591.172 716.179Q593.334 710.204 595.868 704.376Q597.744 699.989 599.843 695.705Q601.942 691.42 604.259 687.25Q606.576 683.079 609.104 679.033Q611.633 674.988 614.367 671.077Q617.1 667.167 620.031 663.403Q622.963 659.639 626.084 656.03Q629.205 652.422 632.508 648.979Q635.811 645.536 639.287 642.268C647.987 634.038 657.317 626.445 665.798 617.99Q669.188 614.551 672.46 610.998Q675.732 607.446 678.881 603.785Q682.03 600.123 685.054 596.357Q688.077 592.591 690.97 588.725Q693.864 584.858 696.625 580.896Q699.386 576.933 702.01 572.879Q704.635 568.826 707.121 564.685Q709.606 560.544 711.95 556.322Q714.294 552.099 716.493 547.799Q718.692 543.5 720.743 539.128Q722.795 534.756 724.698 530.317Q726.6 525.878 728.35 521.377Q730.101 516.876 731.698 512.318Q733.295 507.76 734.736 503.151Q736.177 498.542 737.461 493.886Q738.745 489.231 739.87 484.534C757.336 412.519 745.758 342.828 707.204 279.749C673.818 225.126 619.744 183.39 559.72 161.916C549.673 158.322 539.478 154.916 529.03 152.684C516.014 149.904 502.645 148.435 489.378 147.543C483.553 147.152 474.136 147.877 468.852 146.408C467.691 146.085 467.541 145.95 466.964 144.968Z"/><path fill="#FEE20D" d="M402.068 772.506C401.727 763.167 399.545 753.73 397.035 744.75C388.54 714.361 373.115 684.877 350.149 662.909C334.127 647.584 315.878 635.243 300.894 618.708Q299.057 616.666 297.26 614.589Q295.463 612.512 293.707 610.4Q291.95 608.289 290.234 606.144Q288.519 603.999 286.845 601.821Q285.171 599.643 283.54 597.433Q281.909 595.224 280.32 592.983Q278.732 590.742 277.187 588.471Q275.642 586.2 274.141 583.9Q272.64 581.6 271.184 579.271Q269.728 576.942 268.317 574.585Q266.906 572.229 265.541 569.845Q264.176 567.462 262.857 565.053Q261.538 562.643 260.266 560.209Q258.994 557.775 257.769 555.316Q256.545 552.858 255.367 550.376Q254.19 547.895 253.061 545.391Q251.932 542.887 250.852 540.362Q249.771 537.837 248.74 535.291Q247.708 532.745 246.726 530.18Q245.744 527.615 244.811 525.032Q243.879 522.448 242.996 519.847Q242.114 517.246 241.282 514.629Q240.45 512.011 239.668 509.378Q238.887 506.745 238.157 504.097Q237.426 501.449 236.747 498.788Q236.068 496.127 235.44 493.453Q234.813 490.779 234.237 488.093Q233.661 485.408 233.137 482.711Q232.613 480.015 232.141 477.309Q231.669 474.604 231.25 471.889Q230.83 469.175 230.463 466.453Q230.096 463.731 229.782 461.002Q229.379 457.434 229.064 453.858Q228.749 450.281 228.522 446.698Q228.295 443.114 228.157 439.526Q228.018 435.939 227.968 432.348Q227.919 428.758 227.957 425.168Q227.996 421.578 228.123 417.989Q228.25 414.401 228.466 410.817Q228.682 407.233 228.986 403.655Q229.29 400.078 229.682 396.509Q230.074 392.94 230.554 389.382Q231.034 385.823 231.602 382.278Q232.169 378.733 232.824 375.202Q233.479 371.672 234.221 368.159Q234.963 364.646 235.791 361.152Q236.619 357.658 237.533 354.186Q238.447 350.714 239.446 347.265Q240.446 343.817 241.53 340.394Q242.614 336.971 243.782 333.576Q244.95 330.181 246.202 326.815Q247.454 323.45 248.788 320.117Q250.122 316.783 251.538 313.484Q252.954 310.184 254.451 306.921Q255.948 303.657 257.525 300.431Q259.102 297.206 260.758 294.02Q262.414 290.834 264.148 287.69Q265.882 284.546 267.693 281.446Q269.504 278.346 271.391 275.291Q273.278 272.236 275.24 269.229Q277.201 266.222 279.237 263.264Q281.272 260.306 283.38 257.399Q285.487 254.492 287.666 251.638Q289.845 248.784 292.093 245.985C332.925 194.185 401.067 152.837 466.964 144.968C467.541 145.95 467.691 146.085 468.852 146.408C474.136 147.877 483.553 147.152 489.378 147.543C502.645 148.435 516.014 149.904 529.03 152.684C539.478 154.916 549.673 158.322 559.72 161.916C619.744 183.39 673.818 225.126 707.204 279.749C745.758 342.828 757.336 412.519 739.87 484.534Q738.745 489.231 737.461 493.886Q736.177 498.542 734.736 503.151Q733.295 507.76 731.698 512.318Q730.101 516.876 728.35 521.377Q726.6 525.878 724.698 530.317Q722.795 534.756 720.744 539.128Q718.692 543.5 716.493 547.799Q714.294 552.099 711.95 556.322Q709.606 560.544 707.121 564.685Q704.635 568.826 702.01 572.879Q699.386 576.933 696.625 580.896Q693.864 584.858 690.97 588.725Q688.077 592.591 685.054 596.357Q682.03 600.123 678.881 603.785Q675.732 607.446 672.46 610.998Q669.188 614.551 665.798 617.99C657.317 626.445 647.987 634.038 639.287 642.268Q635.811 645.536 632.508 648.979Q629.205 652.422 626.084 656.03Q622.963 659.639 620.031 663.403Q617.1 667.167 614.367 671.077Q611.633 674.988 609.104 679.033Q606.576 683.079 604.259 687.25Q601.942 691.42 599.843 695.705Q597.744 699.989 595.868 704.376Q593.334 710.204 591.172 716.179Q589.01 722.155 587.229 728.255Q585.448 734.355 584.055 740.555Q582.661 746.755 581.661 753.03C580.697 759.497 580.661 766.172 579.467 772.574C567.623 772.669 555.765 772.661 543.924 772.924C537.797 773.062 531.65 772.982 525.52 772.997Q512.504 772.902 499.487 772.992Q490.76 773.075 482.034 772.907C473.451 771.661 463.775 772.464 455.091 772.467L402.068 772.506Z"/><path fill="#FEFEFE" d="M482.034 772.907L481.987 691.57C481.985 664.917 483.789 636.743 477.542 610.672C472.078 587.869 460.06 565.073 443.438 548.427C438.7 543.682 430.138 537.41 430.067 530.199C430.04 527.463 431.333 524.147 433.391 522.301C434.615 521.204 436.127 520.687 437.769 520.784C445.871 521.261 458.103 536.694 463.245 542.974Q466.137 546.535 468.822 550.255Q471.506 553.976 473.975 557.842Q476.444 561.709 478.689 565.71Q480.933 569.711 482.947 573.833Q484.96 577.956 486.736 582.186Q488.512 586.416 490.044 590.74Q491.576 595.064 492.86 599.468Q494.144 603.873 495.175 608.343C500.716 632.619 499.298 662.719 499.464 687.815Q500.098 730.403 499.487 772.992Q490.76 773.075 482.034 772.907Z"/><path fill="#FEFEFE" d="M525.52 772.997L525.771 687.162C525.708 639.553 522.982 604.254 547.067 560.798C553.788 548.673 562.209 536.505 571.972 526.663C575.452 523.156 580.255 520.15 585.341 520.158C587.528 520.162 589.827 520.758 591.356 522.41C592.965 524.148 593.651 527.173 593.359 529.481C592.688 534.794 585.222 539.549 581.607 543.097Q578.415 546.283 575.569 549.782Q572.22 553.946 569.19 558.348Q566.161 562.75 563.468 567.365Q560.775 571.981 558.434 576.785Q556.093 581.588 554.117 586.553Q552.4 590.683 550.956 594.916Q549.513 599.15 548.349 603.468Q547.184 607.787 546.305 612.172Q545.425 616.558 544.834 620.991C542.239 640.34 543.412 659.997 543.515 679.456L543.924 772.924C537.797 773.062 531.65 772.982 525.52 772.997Z"/><path fill="#FEF554" d="M456.974 197.711C464.862 196.781 472.64 197.294 480.179 199.799C471.21 209.172 458.909 213.77 448.329 221.009C418.515 241.409 390.338 267.044 369.649 296.802Q364.649 304.081 360.094 311.647Q355.54 319.213 351.448 327.039Q347.355 334.865 343.74 342.922Q340.124 350.979 336.998 359.238C329.373 379.184 320.482 421.018 307.742 435.853C304.477 439.654 301.34 441.428 296.376 441.901C292.068 441.539 289.038 440.724 285.644 437.902C276.459 430.264 273.241 415.825 272.332 404.518C268.727 359.652 289.546 305.01 318.567 271.163C353.473 230.453 403.073 201.836 456.974 197.711Z"/></svg>